<svg id="Layer_1" data-name="Layer 1" xmlns="http://www.w3.org/2000/svg" viewBox="0 0 698.16 75.81"><defs><style>.cls-1{fill:#003b95;}</style></defs><title>booking_business_logo_blue_RGB</title><path fill="#003b95" class="cls-1" d="M649.53,42a12,12,0,0,0-2.46-1.45c-.94-.38-1.84-.74-2.72-1.06h0c-1.14-.42-2.13-.84-3-1.23a1.87,1.87,0,0,1-1.23-1.58,1.55,1.55,0,0,1,.72-1.28,3.69,3.69,0,0,1,2-.51,6.67,6.67,0,0,1,2.12.38,1.72,1.72,0,0,1,1.23,1.15l0,.17a2.13,2.13,0,0,0,.42.82,2.59,2.59,0,0,0,.51.42,3.62,3.62,0,0,0,.56.17h3.52V35.27a3.5,3.5,0,0,0-.43-1.62A4.38,4.38,0,0,0,649.48,32a7.51,7.51,0,0,0-2.42-1.32,12.54,12.54,0,0,0-3.69-.64h-.81a14.65,14.65,0,0,0-3,.42,8.73,8.73,0,0,0-2.66,1.24,5.83,5.83,0,0,0-2.68,5.2A5.56,5.56,0,0,0,635.1,40a8.48,8.48,0,0,0,2.17,2.22,16.2,16.2,0,0,0,2.88,1.53L643,45a18.88,18.88,0,0,1,2.2,1.11,1.56,1.56,0,0,1,.85,1.28,1.65,1.65,0,0,1-.72,1.44,3.52,3.52,0,0,1-2,.56,7.14,7.14,0,0,1-2.58-.51,10.64,10.64,0,0,1-2.08-1.11,9.42,9.42,0,0,1-1.4-1.12,1.93,1.93,0,0,1-.51-.59l-.17-.17-2.93,4.09.09.08.63.69a10,10,0,0,0,1.78,1.4,15.29,15.29,0,0,0,3,1.41,12.52,12.52,0,0,0,4.16.64,11.88,11.88,0,0,0,3.56-.51,8.5,8.5,0,0,0,2.8-1.49,7.38,7.38,0,0,0,1.83-2.26,6.59,6.59,0,0,0,.63-2.86,5.74,5.74,0,0,0-.72-3A7.44,7.44,0,0,0,649.53,42" transform="translate(-0.19 -2.22)"/><path fill="#003b95" class="cls-1" d="M670.1,42a12,12,0,0,0-2.46-1.45c-.94-.38-1.84-.74-2.72-1.06h0c-1.14-.42-2.13-.84-3-1.23a1.87,1.87,0,0,1-1.24-1.58,1.54,1.54,0,0,1,.73-1.28,3.65,3.65,0,0,1,2-.51,6.67,6.67,0,0,1,2.12.38,1.72,1.72,0,0,1,1.23,1.15l0,.17a2.16,2.16,0,0,0,.43.82,2.59,2.59,0,0,0,.51.42,3.5,3.5,0,0,0,.55.17h3.52V35.27a3.49,3.49,0,0,0-.42-1.62A4.5,4.5,0,0,0,670.06,32a7.51,7.51,0,0,0-2.42-1.32A12.49,12.49,0,0,0,664,30h-.8a14.46,14.46,0,0,0-3,.42,8.68,8.68,0,0,0-2.67,1.24,6.39,6.39,0,0,0-2,2.09,6.47,6.47,0,0,0-.72,3.11,5.4,5.4,0,0,0,.89,3.12,8.29,8.29,0,0,0,2.16,2.22,16.55,16.55,0,0,0,2.88,1.53l2.84,1.2a14.79,14.79,0,0,1,2.17,1.11,1.56,1.56,0,0,1,.89,1.28,1.67,1.67,0,0,1-.72,1.44,3.52,3.52,0,0,1-2,.56,7.15,7.15,0,0,1-2.59-.51,10.93,10.93,0,0,1-2.08-1.11,9.34,9.34,0,0,1-1.39-1.12,1.93,1.93,0,0,1-.51-.59l-.17-.17-2.93,4.09.08.08.64.69a9.63,9.63,0,0,0,1.78,1.4,15.29,15.29,0,0,0,3,1.41,12.52,12.52,0,0,0,4.16.64,11.86,11.86,0,0,0,3.55-.51,8.5,8.5,0,0,0,2.8-1.49,7.38,7.38,0,0,0,1.83-2.26,6.59,6.59,0,0,0,.63-2.86,5.65,5.65,0,0,0-.72-3A7.44,7.44,0,0,0,670.1,42" transform="translate(-0.19 -2.22)"/><path fill="#003b95" class="cls-1" d="M684.18,2.22H490.33a14.23,14.23,0,0,0-14.16,14.27V63.73A14.24,14.24,0,0,0,490.34,78H684.19a14.24,14.24,0,0,0,14.17-14.26V16.49A14.25,14.25,0,0,0,684.18,2.22m9.73,61.53a9.78,9.78,0,0,1-9.73,9.81H490.35a9.79,9.79,0,0,1-9.73-9.82V16.47a9.78,9.78,0,0,1,9.72-9.81H684.18a9.8,9.8,0,0,1,9.73,9.82Z" transform="translate(-0.19 -2.22)"/><path fill="#003b95" class="cls-1" d="M522.89,38.06c0,.07.05.13.07.19a2.31,2.31,0,0,0-.12-.38h0a.85.85,0,0,0-.13-.31,11.53,11.53,0,0,0-2.25-3.7,10,10,0,0,0-3.9-2.56,9.46,9.46,0,0,0-8.91,1.33V26.14a13.85,13.85,0,0,0,0-1.44,4.89,4.89,0,0,0-.26-1.36,2.79,2.79,0,0,0-.68-1.16,2.65,2.65,0,0,0-1.31-.72,7.11,7.11,0,0,0-1.95-.21l-2,0c0,1.11,0,2.56,0,4.35s0,3.72,0,5.84,0,4.27,0,6.52,0,4.36,0,6.4,0,3.85,0,5.45,0,2.9,0,3.76h2.67a2.16,2.16,0,0,0,.72-.09,3.43,3.43,0,0,0,1.28-.64,3.08,3.08,0,0,0,.88-1,4.64,4.64,0,0,0,2.34,1.62,17.08,17.08,0,0,0,2.84.51,12.17,12.17,0,0,0,3.9-.3A9.43,9.43,0,0,0,519.61,52a8.78,8.78,0,0,0,2.46-2.89,13.32,13.32,0,0,0,1.32-3.67,14.86,14.86,0,0,0,.21-3.88,16.16,16.16,0,0,0-.71-3.52m-5.95,6.2v0a4.5,4.5,0,0,1-2.2,3.39,5.27,5.27,0,0,1-4,.56,3.21,3.21,0,0,1-1.87-1.15,5.8,5.8,0,0,1-1-2,9,9,0,0,1-.3-2.31,13.22,13.22,0,0,1,.17-2.17,4.94,4.94,0,0,1,2.08-3.37,4.28,4.28,0,0,1,3.86-.34,4.17,4.17,0,0,1,1.86,1.19A6.49,6.49,0,0,1,516.61,40a8.15,8.15,0,0,1,.38,2.13,10.1,10.1,0,0,1,0,2.13" transform="translate(-0.19 -2.22)"/><path fill="#003b95" class="cls-1" d="M542.85,41a7.22,7.22,0,0,1-1.65,5.08,5.47,5.47,0,0,1-4.07,1.79,2.8,2.8,0,0,1-2.29-.85,4.77,4.77,0,0,1-.72-3V34c0-2.3-1.12-3.46-3.39-3.46H527.5V45.07q0,4.59,2.12,6.78A8.38,8.38,0,0,0,535.86,54h0a12.38,12.38,0,0,0,2.85-.3,8.66,8.66,0,0,0,2-.68,7.36,7.36,0,0,0,1.45-.81q.54-.42.93-.69a2.78,2.78,0,0,0,.17.51,1.66,1.66,0,0,0,.51.69,2.7,2.7,0,0,0,1,.59,4.29,4.29,0,0,0,1.7.26h2.8V30.49h-6.41Z" transform="translate(-0.19 -2.22)"/><polygon class="cls-1" points="516.75 42.04 516.75 42.04 516.75 42.04 516.75 42.04"/><path fill="#003b95" class="cls-1" d="M516.94,44.12a.57.57,0,0,1,0,.14.48.48,0,0,0,0,.17.42.42,0,0,1,0-.15h0v-.15" transform="translate(-0.19 -2.22)"/><path fill="#003b95" class="cls-1" d="M516.94,44.12v0" transform="translate(-0.19 -2.22)"/><path fill="#003b95" class="cls-1" d="M629.59,34a8.81,8.81,0,0,0-3.31-2.9,9.84,9.84,0,0,0-4.7-1.06h0a9.93,9.93,0,0,0-4.45,1,10.08,10.08,0,0,0-3.43,2.6,12.4,12.4,0,0,0-2.29,3.84,13.12,13.12,0,0,0-.81,4.56,14.85,14.85,0,0,0,.81,5,10.22,10.22,0,0,0,6.1,6.14,13.77,13.77,0,0,0,5,.85,15.44,15.44,0,0,0,3.78-.43,17.23,17.23,0,0,0,2.89-1.06A8.11,8.11,0,0,0,631,51.34a1.52,1.52,0,0,0,.64-.94l-1.15-1.62a3.12,3.12,0,0,0-1.65-1.7,2.82,2.82,0,0,0-1.7.08c-.6.24-1.28.53-2,.9a6.19,6.19,0,0,1-2.62.51,6.42,6.42,0,0,1-2-.3,5.54,5.54,0,0,1-1.78-1,4.66,4.66,0,0,1-1.23-1.49,3.7,3.7,0,0,1-.47-1.92h14.68a18.55,18.55,0,0,0-.3-5.46A12.11,12.11,0,0,0,629.59,34m-4.34,5.33H617a3.48,3.48,0,0,1,1.45-2.86,5.2,5.2,0,0,1,2.89-.85,6.37,6.37,0,0,1,1.44.17,3.53,3.53,0,0,1,1.23.64,2.93,2.93,0,0,1,.93,1.11,4.27,4.27,0,0,1,.35,1.79Z" transform="translate(-0.19 -2.22)"/><path fill="#003b95" class="cls-1" d="M600.16,30.15h0a8.51,8.51,0,0,0-4.11.9c-.56.34-1,.65-1.48.93a12.67,12.67,0,0,0-1.15.9l-.46.47-.13-.73a2.2,2.2,0,0,0-1.1-1.62,4.47,4.47,0,0,0-2.12-.47h-2.93V53.64h6.15V43a7.59,7.59,0,0,1,1.4-4.81,4.77,4.77,0,0,1,4-1.88,2.84,2.84,0,0,1,2.2.85,4.44,4.44,0,0,1,.81,3v9.93a3.33,3.33,0,0,0,1.1,2.77,4.56,4.56,0,0,0,2.84.81h2.16V39.06a11.73,11.73,0,0,0-1.57-6.65q-1.65-2.26-5.59-2.26" transform="translate(-0.19 -2.22)"/><path fill="#003b95" class="cls-1" d="M578.57,29.94h-3.23v23.7H582v-20a4.23,4.23,0,0,0-.81-2.73,3.36,3.36,0,0,0-2.58-1" transform="translate(-0.19 -2.22)"/><path fill="#003b95" class="cls-1" d="M578.57,20a3.68,3.68,0,0,0-2.8,1.12,4,4,0,0,0-1,2.85,3.82,3.82,0,0,0,1,2.69,3.92,3.92,0,0,0,5.47,0,4.08,4.08,0,0,0,1-2.69,4.29,4.29,0,0,0-1-2.85A3.65,3.65,0,0,0,578.57,20" transform="translate(-0.19 -2.22)"/><path fill="#003b95" class="cls-1" d="M568.52,42a12,12,0,0,0-2.46-1.45c-.94-.38-1.84-.74-2.72-1.06h0c-1.14-.42-2.13-.84-3-1.23a1.87,1.87,0,0,1-1.23-1.58,1.55,1.55,0,0,1,.72-1.28,3.71,3.71,0,0,1,2-.51,6.67,6.67,0,0,1,2.12.38,1.72,1.72,0,0,1,1.23,1.15l0,.17a2.28,2.28,0,0,0,.42.82,2.59,2.59,0,0,0,.51.42,3.62,3.62,0,0,0,.56.17h3.52V35.27a3.61,3.61,0,0,0-.42-1.62A4.5,4.5,0,0,0,568.47,32a7.51,7.51,0,0,0-2.42-1.32,12.49,12.49,0,0,0-3.69-.64h-.8a14.65,14.65,0,0,0-3,.42,8.73,8.73,0,0,0-2.66,1.24,6.39,6.39,0,0,0-2,2.09,6.47,6.47,0,0,0-.73,3.11,5.56,5.56,0,0,0,.89,3.12,8.48,8.48,0,0,0,2.17,2.22,16.29,16.29,0,0,0,2.89,1.53c1,.43,1.94.83,2.84,1.2a14.68,14.68,0,0,1,2.16,1.11,1.52,1.52,0,0,1,.89,1.28,1.67,1.67,0,0,1-.72,1.44,3.52,3.52,0,0,1-2,.56,7.14,7.14,0,0,1-2.58-.51,10.64,10.64,0,0,1-2.08-1.11,9.42,9.42,0,0,1-1.4-1.12,1.93,1.93,0,0,1-.51-.59l-.17-.17-2.93,4.09.09.08.63.69a10,10,0,0,0,1.78,1.4,15.29,15.29,0,0,0,3,1.41,12.52,12.52,0,0,0,4.16.64,11.88,11.88,0,0,0,3.56-.51,8.5,8.5,0,0,0,2.8-1.49,7.38,7.38,0,0,0,1.83-2.26A6.59,6.59,0,0,0,571.1,47a5.74,5.74,0,0,0-.72-3A7.44,7.44,0,0,0,568.52,42" transform="translate(-0.19 -2.22)"/><path fill="#003b95" class="cls-1" d="M178.73,9.24a6.92,6.92,0,1,1,6.91,6.94A6.92,6.92,0,0,1,178.73,9.24Z" transform="translate(-0.19 -2.22)"/><path fill="#003b95" class="cls-1" d="M287.88,55.37a6.92,6.92,0,1,1,6.91,6.94A6.92,6.92,0,0,1,287.88,55.37Z" transform="translate(-0.19 -2.22)"/><path fill="#003b95" class="cls-1" d="M65.19,19.29c-12.6,0-21.75,9.08-21.75,21.59s9.15,21.59,21.75,21.59S87,53.39,87,40.88,77.84,19.29,65.19,19.29Zm0,33.09c-6,0-10.1-4.74-10.1-11.5S59.23,29.4,65.19,29.4s10.18,4.72,10.18,11.48S71.27,52.38,65.19,52.38Z" transform="translate(-0.19 -2.22)"/><path fill="#003b95" class="cls-1" d="M165.33,42a10.28,10.28,0,0,0-1.65-2.32l-.38-.4.4-.39a17,17,0,0,0,1.74-2.17l11.12-16.54h-13.5l-8.35,12.93c-.48.7-1.43,1-2.87,1h-1.9V9.67c0-4.89-3.05-5.56-6.34-5.56H138V61.84h12V44.52h1.12c1.37,0,2.3.16,2.72.9l6.6,12.46c1.85,3.38,3.68,4,7.14,4h9.17l-6.83-11.29Z" transform="translate(-0.19 -2.22)"/><path fill="#003b95" class="cls-1" d="M223.41,19.2a16.3,16.3,0,0,0-12.14,5l-.73.74-.25-1c-.64-2.44-2.8-3.79-6-3.79h-5.36l0,41.69H210.8V42.6a15.44,15.44,0,0,1,.75-5,9.78,9.78,0,0,1,9.62-7.31c3.71,0,5.16,2,5.16,7V55.48c0,4.33,2,6.34,6.32,6.34h5.65l0-26.52C238.28,24.77,233.14,19.2,223.41,19.2Z" transform="translate(-0.19 -2.22)"/><path fill="#003b95" class="cls-1" d="M185.79,20.14h-5.63l0,32.24h0v9.45H192l0-35.34C192.05,22.21,190,20.14,185.79,20.14Z" transform="translate(-0.19 -2.22)"/><path fill="#003b95" class="cls-1" d="M111.87,19.29c-12.62,0-21.77,9.08-21.77,21.59s9.15,21.59,21.77,21.59,21.84-9.08,21.84-21.59S124.51,19.29,111.87,19.29Zm0,33.09c-6,0-10.1-4.74-10.1-11.5s4.14-11.48,10.1-11.48S122,34.12,122,40.88,118,52.38,111.87,52.38Z" transform="translate(-0.19 -2.22)"/><path fill="#003b95" class="cls-1" d="M366.6,19.29c-12.61,0-21.76,9.08-21.76,21.59S354,62.47,366.6,62.47s21.84-9.08,21.84-21.59S379.24,19.29,366.6,19.29Zm0,33.09c-6,0-10.11-4.74-10.11-11.5S360.64,29.4,366.6,29.4s10.19,4.72,10.19,11.48S372.68,52.38,366.6,52.38Z" transform="translate(-0.19 -2.22)"/><path fill="#003b95" class="cls-1" d="M277.69,20a5.15,5.15,0,0,0-4.86,2.54l-.32.64-.55-.48C270,21.07,266.6,19.11,261,19.11c-11.11,0-18.6,8.34-18.6,20.77s7.74,21.06,18.82,21.06a14.62,14.62,0,0,0,9.15-2.67l.92-.69v1.16c0,5.57-3.6,8.65-10.14,8.65a24.06,24.06,0,0,1-8-1.48c-2.52-.76-4-.13-5,2.4l-.95,2.33-1.34,3.41.83.44A32.43,32.43,0,0,0,261.23,78c10.12,0,21.94-5.18,21.94-19.76l0-38.23ZM263.34,50.55c-6.48,0-8.8-5.68-8.8-11,0-2.34.58-10,8.17-10,3.77,0,8.82,1.08,8.82,10.37C271.53,48.71,267.07,50.55,263.34,50.55Z" transform="translate(-0.19 -2.22)"/><path fill="#003b95" class="cls-1" d="M33.29,32.24l-1.75-1L33.06,30a14,14,0,0,0,4.76-10.9c0-9.07-7-14.93-17.93-14.93H6a6.08,6.08,0,0,0-5.85,6V61.62H20.13c12.11,0,19.93-6.59,19.93-16.8C40.06,39.32,37.53,34.63,33.29,32.24Zm-22-11.54h0V17.65c0-2.66,1.13-3.93,3.6-4.09h4.95c4.24,0,6.79,2.54,6.79,6.8,0,3.24-1.74,7-6.64,7h-8.7Zm9.67,31.2H11.26V40.32c0-2.47,1-3.76,3.08-4h6.59c4.71,0,7.76,3,7.76,7.77S25.72,51.9,20.93,51.9Z" transform="translate(-0.19 -2.22)"/><path fill="#003b95" class="cls-1" d="M441.53,19.34a16.33,16.33,0,0,0-12.76,6.18l-.87,1.09-.67-1.23c-2.19-4-6-6-11.26-6A15.07,15.07,0,0,0,405,24.25l-1.13,1.22-.43-1.6c-.63-2.32-2.69-3.58-5.81-3.58h-5l0,41.53H404V43.48a20.46,20.46,0,0,1,.61-4.85c1.08-4.44,4.06-9.2,9.06-8.73,3.09.31,4.6,2.69,4.6,7.3V61.82h11.43V43.48a16.44,16.44,0,0,1,.64-5c.92-4.23,4-8.57,8.85-8.57,3.5,0,4.79,2,4.79,7.3V55.74c0,4.21,1.87,6.08,6.07,6.08h5.33l0-26.52C455.37,24.7,450.7,19.34,441.53,19.34Z" transform="translate(-0.19 -2.22)"/><path fill="#003b95" class="cls-1" d="M338.27,47.4s-4.92,5.19-11.35,5.19c-5.86,0-11.78-3.59-11.78-11.63,0-6.93,4.59-11.77,11.16-11.77,2.13,0,4.57.77,4.94,2.06l.05.22a4.19,4.19,0,0,0,4,3.06h6.21V29.1c0-7.17-9.12-9.76-15.25-9.76-13.12,0-22.65,9.14-22.65,21.71s9.42,21.71,22.41,21.71a23.53,23.53,0,0,0,17.45-7.48l.33-.41-4.92-8.17Z" transform="translate(-0.19 -2.22)"/></svg>